<svg width="80" height="40" viewBox="0 0 80 40" fill="none" xmlns="http://www.w3.org/2000/svg">
<path d="M70.56 37.0503L49.28 38.6883C43.12 39.1563 36.88 39.1563 30.64 38.6883L9.44 37.0503C4.08 36.6603 0 32.5263 0 27.5343V12.0123C0 7.09828 4.08 2.96428 9.36 2.49628L38.24 0.0782754C39.36 0.000275392 40.56 0.000275392 41.68 0.0782754L70.64 2.57428C75.92 2.96428 80 7.09828 80 12.0123V27.5343C80 32.5263 75.92 36.6603 70.56 37.0503Z" fill="#E63500"/>
<path d="M29.84 12.7919C29.84 12.7919 29.6 7.01994 23.6 7.95594C23.6 7.95594 23.76 13.0259 28.88 13.4159C28.88 13.4159 27.6 10.9979 25.92 10.2179C26 10.1399 27.44 10.2959 29.84 12.7919Z" fill="white"/>
<path d="M29.84 12.7919C29.84 12.7919 30.96 9.51594 34.16 11.0759C34.16 11.0759 33.2 14.0399 30.24 13.3379C30.24 13.3379 31.44 12.0899 32.48 11.9339C32.48 11.9339 31.6 11.7779 29.84 12.7919Z" fill="white"/>
<path d="M41.2 23.79C41.12 23.712 40.96 23.634 40.72 23.634H40.24C40 23.634 39.76 23.556 39.6 23.4C39.36 23.166 39.28 22.698 39.28 22.152V10.842C39.28 10.686 39.2 10.53 39.12 10.374C39.04 10.296 38.88 10.218 38.72 10.218H36.16C35.84 10.218 35.68 10.374 35.68 10.686V21.918C35.68 23.556 36.16 24.96 37.12 25.818C37.84 26.52 38.8 26.91 39.92 26.91C40.4 26.91 40.8 26.832 41.12 26.832C41.44 26.754 41.44 26.442 41.44 26.364V24.258C41.36 24.024 41.36 23.868 41.2 23.79Z" fill="white"/>
<path d="M47.68 23.79C47.6 23.712 47.44 23.634 47.2 23.634H46.72C46.48 23.634 46.24 23.556 46.08 23.4C45.84 23.166 45.76 22.698 45.76 22.152V10.842C45.76 10.686 45.68 10.53 45.6 10.374C45.52 10.296 45.36 10.218 45.2 10.218H42.64C42.32 10.218 42.16 10.374 42.16 10.686V21.918C42.16 23.556 42.64 24.96 43.6 25.818C44.32 26.52 45.28 26.91 46.4 26.91C46.88 26.91 47.28 26.832 47.6 26.832C47.92 26.754 47.92 26.442 47.92 26.364V24.258C47.84 24.024 47.76 23.868 47.68 23.79Z" fill="white"/>
<path d="M69.84 14.7419C69.76 14.6639 69.6 14.5859 69.44 14.5859H66.88C66.56 14.5859 66.4 14.7419 66.4 15.0539V22.7759C66.16 22.9319 65.68 23.0879 65.12 23.0879C64.64 23.0879 64.32 22.9319 64.08 22.6979C63.84 22.3859 63.68 21.9959 63.68 21.3719V15.1319C63.68 14.8979 63.6 14.8199 63.52 14.7419C63.44 14.6639 63.28 14.5859 63.04 14.5859H60.48C60.16 14.5859 60 14.7419 60 15.0539V21.0599C60 22.6979 60.56 24.1019 61.52 25.0379C62.4 25.8959 63.52 26.3639 64.8 26.3639C65.36 26.3639 65.92 26.2859 66.48 26.1299C66.4 27.3779 65.92 27.9239 64.64 27.9239C63.76 27.9239 62.96 27.6899 62.24 27.2219C61.84 26.9879 61.6 27.1439 61.52 27.3779L60.48 29.1719C60.32 29.4059 60.4 29.7179 60.72 29.9519C61.92 30.8879 63.28 31.2779 65.04 31.2779C68.8 31.2779 70.24 29.6399 70.24 25.5059V15.2879C70 15.0539 69.92 14.8979 69.84 14.7419Z" fill="white"/>
<path d="M29.44 14.2739C27.68 14.2739 26 14.6639 24.96 15.3659C24.8 15.5219 24.8 15.6779 24.96 15.9899L26 17.8619C26.08 18.0179 26.16 18.0959 26.32 18.1739C26.48 18.2519 26.64 18.2519 26.8 18.0959C27.44 17.7839 28.64 17.4719 29.6 17.4719C30.24 17.4719 30.64 17.7059 30.88 17.9399C31.12 18.1739 31.28 18.5639 31.28 19.1099V19.2659C30.72 19.1879 29.76 19.1099 29.12 19.1099C26 19.1099 24.48 20.2019 24.48 22.3859C24.48 23.5559 24.88 24.5699 25.68 25.4279C26.64 26.3639 28 26.9099 29.68 26.9099C29.76 26.9099 29.76 26.9099 29.84 26.9099C29.84 26.9099 29.84 26.9099 29.92 26.9099C30.4 26.9099 30.88 26.8319 31.36 26.8319C32.72 26.5979 34.64 25.8179 34.64 23.3999C34.64 23.0879 34.64 22.8539 34.64 22.6199V19.8899C34.64 18.0959 34.16 16.6139 33.12 15.6779C32.16 14.7419 30.96 14.2739 29.44 14.2739ZM29.52 24.2579C28.4 24.2579 27.52 23.6339 27.52 22.7759C27.52 21.9959 28.4 21.2939 29.52 21.2939C30.64 21.2939 31.52 21.9179 31.52 22.7759C31.52 23.6339 30.56 24.2579 29.52 24.2579Z" fill="white"/>
<path d="M53.6 14.2739C51.84 14.2739 50.16 14.6639 49.12 15.3659C48.96 15.5219 48.96 15.6779 49.12 15.9899L50.16 17.8619C50.24 18.0179 50.32 18.0959 50.48 18.1739C50.64 18.2519 50.8 18.2519 50.96 18.0959C51.6 17.7839 52.8 17.4719 53.76 17.4719C54.4 17.4719 54.8 17.7059 55.04 17.9399C55.28 18.1739 55.44 18.5639 55.44 19.1099V19.2659C54.88 19.1879 53.92 19.1099 53.28 19.1099C50.16 19.1099 48.64 20.2019 48.64 22.3859C48.64 23.5559 49.04 24.5699 49.84 25.4279C50.8 26.3639 52.16 26.9099 53.84 26.9099C53.92 26.9099 53.92 26.9099 54 26.9099C54 26.9099 54 26.9099 54.08 26.9099C54.56 26.9099 55.04 26.9099 55.52 26.8319C56.88 26.5979 58.8 25.8179 58.8 23.3999C58.8 23.0879 58.8 22.8539 58.8 22.6199V19.8899C58.8 18.0959 58.32 16.6139 57.28 15.6779C56.32 14.7419 55.04 14.2739 53.6 14.2739ZM53.6 24.3359C52.48 24.3359 51.6 23.7119 51.6 22.8539C51.6 22.0739 52.48 21.3719 53.6 21.3719C54.72 21.3719 55.6 21.9959 55.6 22.8539C55.6 23.7119 54.72 24.3359 53.6 24.3359Z" fill="white"/>
<path d="M19.2 10.9979C19.12 10.6859 18.88 10.5299 18.56 10.5299H15.28C15.04 10.5299 14.8 10.6859 14.72 10.9199L9.99999 26.2859C9.91999 26.5199 10 26.6759 10.08 26.8319C10.16 26.9099 10.32 26.9879 10.56 26.9879H13.6C13.92 26.9879 14.08 26.8319 14.16 26.5979L14.88 24.0239H19.68L20.4 26.5199C20.48 26.8319 20.72 26.9879 21.04 26.9879H23.84C24.08 26.9879 24.16 26.9099 24.24 26.8319C24.32 26.7539 24.32 26.5979 24.24 26.4419L19.2 10.9979ZM18.64 20.4359H15.84C16.32 18.7199 16.72 17.0039 17.04 15.5999C17.12 15.4439 17.12 15.2879 17.2 15.0539C17.44 15.9119 17.76 17.0039 18 18.0959C18.16 18.8759 18.4 19.6559 18.64 20.4359Z" fill="white"/>
</svg>
