<svg width="117" height="58" viewBox="0 0 117 58" fill="none" xmlns="http://www.w3.org/2000/svg">
<g clip-path="url(#clip0_1_1519)">
<path d="M103.194 55.1003L72.072 57.5363C63.063 58.2323 53.937 58.2323 44.811 57.5363L13.806 55.1003C5.967 54.5203 0 48.3723 0 40.9483V17.8643C0 10.5563 5.967 4.4083 13.689 3.7123L55.926 0.116297C57.564 0.000296881 59.319 0.000296881 60.957 0.116297L103.311 3.8283C111.033 4.4083 117 10.5563 117 17.8643V40.9483C117 48.3723 111.033 54.5203 103.194 55.1003Z" fill="#E63500"/>
<path d="M43.641 19.024C43.641 19.024 43.29 10.44 34.515 11.832C34.515 11.832 34.749 19.372 42.237 19.952C42.237 19.952 40.365 16.356 37.908 15.196C38.025 15.08 40.131 15.312 43.641 19.024Z" fill="white"/>
<path d="M43.641 19.024C43.641 19.024 45.279 14.152 49.959 16.472C49.959 16.472 48.555 20.88 44.226 19.836C44.226 19.836 45.981 17.98 47.502 17.748C47.502 17.748 46.215 17.516 43.641 19.024Z" fill="white"/>
<path d="M60.255 35.38C60.138 35.264 59.904 35.148 59.553 35.148H58.851C58.5 35.148 58.149 35.032 57.915 34.8C57.564 34.452 57.447 33.756 57.447 32.944V16.124C57.447 15.892 57.33 15.66 57.213 15.428C57.096 15.312 56.862 15.196 56.628 15.196H52.884C52.416 15.196 52.182 15.428 52.182 15.892V32.596C52.182 35.032 52.884 37.12 54.288 38.396C55.341 39.44 56.745 40.02 58.383 40.02C59.085 40.02 59.67 39.904 60.138 39.904C60.606 39.788 60.606 39.324 60.606 39.208V36.076C60.489 35.728 60.489 35.496 60.255 35.38Z" fill="white"/>
<path d="M69.732 35.38C69.615 35.264 69.381 35.148 69.03 35.148H68.328C67.977 35.148 67.626 35.032 67.392 34.8C67.041 34.452 66.924 33.756 66.924 32.944V16.124C66.924 15.892 66.807 15.66 66.69 15.428C66.573 15.312 66.339 15.196 66.105 15.196H62.361C61.893 15.196 61.659 15.428 61.659 15.892V32.596C61.659 35.032 62.361 37.12 63.765 38.396C64.818 39.44 66.222 40.02 67.86 40.02C68.562 40.02 69.147 39.904 69.615 39.904C70.083 39.788 70.083 39.324 70.083 39.208V36.076C69.966 35.728 69.849 35.496 69.732 35.38Z" fill="white"/>
<path d="M102.141 21.924C102.024 21.808 101.79 21.692 101.556 21.692H97.812C97.344 21.692 97.11 21.924 97.11 22.388V33.872C96.759 34.104 96.057 34.336 95.238 34.336C94.536 34.336 94.068 34.104 93.717 33.756C93.366 33.292 93.132 32.712 93.132 31.784V22.504C93.132 22.156 93.015 22.04 92.898 21.924C92.781 21.808 92.547 21.692 92.196 21.692H88.452C87.984 21.692 87.75 21.924 87.75 22.388V31.32C87.75 33.756 88.569 35.844 89.973 37.236C91.26 38.512 92.898 39.208 94.77 39.208C95.589 39.208 96.408 39.092 97.227 38.86C97.11 40.716 96.408 41.528 94.536 41.528C93.249 41.528 92.079 41.18 91.026 40.484C90.441 40.136 90.09 40.368 89.973 40.716L88.452 43.384C88.218 43.732 88.335 44.196 88.803 44.544C90.558 45.936 92.547 46.516 95.121 46.516C100.62 46.516 102.726 44.08 102.726 37.932V22.736C102.375 22.388 102.258 22.156 102.141 21.924Z" fill="white"/>
<path d="M43.056 21.228C40.482 21.228 38.025 21.808 36.504 22.852C36.27 23.084 36.27 23.316 36.504 23.78L38.025 26.564C38.142 26.796 38.259 26.912 38.493 27.028C38.727 27.144 38.961 27.144 39.195 26.912C40.131 26.448 41.886 25.984 43.29 25.984C44.226 25.984 44.811 26.332 45.162 26.68C45.513 27.028 45.747 27.608 45.747 28.42V28.652C44.928 28.536 43.524 28.42 42.588 28.42C38.025 28.42 35.802 30.044 35.802 33.292C35.802 35.032 36.387 36.54 37.557 37.816C38.961 39.208 40.95 40.02 43.407 40.02C43.524 40.02 43.524 40.02 43.641 40.02C43.641 40.02 43.641 40.02 43.758 40.02C44.46 40.02 45.162 39.904 45.864 39.904C47.853 39.556 50.661 38.396 50.661 34.8C50.661 34.336 50.661 33.988 50.661 33.64V29.58C50.661 26.912 49.959 24.708 48.438 23.316C47.034 21.924 45.279 21.228 43.056 21.228ZM43.173 36.076C41.535 36.076 40.248 35.148 40.248 33.872C40.248 32.712 41.535 31.668 43.173 31.668C44.811 31.668 46.098 32.596 46.098 33.872C46.098 35.148 44.694 36.076 43.173 36.076Z" fill="white"/>
<path d="M78.39 21.228C75.816 21.228 73.359 21.808 71.838 22.852C71.604 23.084 71.604 23.316 71.838 23.78L73.359 26.564C73.476 26.796 73.593 26.912 73.827 27.028C74.061 27.144 74.295 27.144 74.529 26.912C75.465 26.448 77.22 25.984 78.624 25.984C79.56 25.984 80.145 26.332 80.496 26.68C80.847 27.028 81.081 27.608 81.081 28.42V28.652C80.262 28.536 78.858 28.42 77.922 28.42C73.359 28.42 71.136 30.044 71.136 33.292C71.136 35.032 71.721 36.54 72.891 37.816C74.295 39.208 76.284 40.02 78.741 40.02C78.858 40.02 78.858 40.02 78.975 40.02C78.975 40.02 78.975 40.02 79.092 40.02C79.794 40.02 80.496 40.02 81.198 39.904C83.187 39.556 85.995 38.396 85.995 34.8C85.995 34.336 85.995 33.988 85.995 33.64V29.58C85.995 26.912 85.293 24.708 83.772 23.316C82.368 21.924 80.496 21.228 78.39 21.228ZM78.39 36.192C76.752 36.192 75.465 35.264 75.465 33.988C75.465 32.828 76.752 31.784 78.39 31.784C80.028 31.784 81.315 32.712 81.315 33.988C81.315 35.264 80.028 36.192 78.39 36.192Z" fill="white"/>
<path d="M28.08 16.356C27.963 15.892 27.612 15.66 27.144 15.66H22.347C21.996 15.66 21.645 15.892 21.528 16.24L14.625 39.092C14.508 39.44 14.625 39.672 14.742 39.904C14.859 40.02 15.093 40.136 15.444 40.136H19.89C20.358 40.136 20.592 39.904 20.709 39.556L21.762 35.728H28.782L29.835 39.44C29.952 39.904 30.303 40.136 30.771 40.136H34.866C35.217 40.136 35.334 40.02 35.451 39.904C35.568 39.788 35.568 39.556 35.451 39.324L28.08 16.356ZM27.261 30.392H23.166C23.868 27.84 24.453 25.288 24.921 23.2C25.038 22.968 25.038 22.736 25.155 22.388C25.506 23.664 25.974 25.288 26.325 26.912C26.559 28.072 26.91 29.232 27.261 30.392Z" fill="white"/>
</g>
<defs>
<clipPath id="clip0_1_1519">
<rect width="117" height="58" fill="white"/>
</clipPath>
</defs>
</svg>
